<svg width="1432" height="979" viewBox="0 0 1432 979" fill="none" xmlns="http://www.w3.org/2000/svg">
<g filter="url(#filter0_d_1_170)">
<g clip-path="url(#clip0_1_170)">
<rect x="4" width="1424" height="971" fill="url(#paint0_radial_1_170)"/>
<path d="M873.026 263.135C874.873 258.703 882.627 257.368 886.62 256.481C891.023 255.503 897.86 253.524 899.337 255.863C900.814 258.202 913.159 324.811 912.174 325.919C911.189 327.027 887.676 329.858 884.721 328.012C881.767 326.165 871.18 267.567 873.026 263.135Z" fill="#E1E1E1"/>
<path d="M746.769 682.79C751.234 683.701 748.802 695.863 747.491 701.351C744.962 711.935 722.707 703.79 726.178 694.286C729.797 684.38 742.543 681.928 746.769 682.79Z" fill="#313447"/>
<path fill-rule="evenodd" clip-rule="evenodd" d="M1081.64 520.937C1079.81 517.952 1079.58 514.801 1082.57 511.611C1090.68 502.961 1114.93 508.407 1143.77 514.882C1154.05 517.19 1164.92 519.629 1175.84 521.607C1432.6 547.58 1633 764.387 1633 1028C1633 1309.11 1405.11 1537 1124 1537C842.887 1537 615 1309.11 615 1028C615 928.349 615.092 871.356 664.585 792.863C709.202 712.384 776.027 645.489 853.749 597.962C863.888 589.344 883.176 572.63 892.013 563.793C902.175 553.631 912.474 555.996 917.907 564.24C970.281 540.935 1025.82 526.011 1081.64 520.937Z" fill="url(#paint1_linear_1_170)"/>
<circle cx="36" cy="36" r="36" transform="matrix(-1 0 0 1 1473 439)" fill="#383B51"/>
<path fill-rule="evenodd" clip-rule="evenodd" d="M893.115 241.753C889 241.174 885.064 239.484 882.411 236.031C874.766 226.085 889.627 216.588 896.353 219.066C903.079 221.544 913.406 233.8 910.878 237.55C909.87 239.045 906.354 240.688 902.007 241.493L914.941 252.498L904.439 261.809L893.115 241.753Z" fill="#FFB287"/>
<path fill-rule="evenodd" clip-rule="evenodd" d="M887.641 217.596C885.818 218.431 883.604 220.129 882.816 221.007C882.256 219.37 881.274 217.865 879.964 216.712C878.691 215.592 877.179 215.019 875.663 214.357C874.964 214.052 874.235 213.778 873.479 213.741C872.709 213.704 871.95 213.9 871.29 214.259C870.614 214.626 870.037 215.157 869.58 215.773C869.378 216.045 869.256 216.356 869.068 216.635C868.876 216.921 868.617 216.872 868.296 216.876C867.525 216.885 866.719 217.265 866.108 217.688C865.422 218.162 864.862 218.826 864.452 219.553C864.053 220.261 863.786 221.073 863.786 221.91C863.786 222.283 863.829 222.67 863.952 223.029C864.003 223.176 864.052 223.246 863.979 223.381C863.912 223.506 863.797 223.61 863.725 223.735C863.032 224.95 862.863 226.468 863.274 227.861C863.513 228.673 864.281 229.797 865.32 230.898C866.359 231.999 870.001 234.047 871.913 234.277C873.619 234.482 875.437 234.005 876.894 233.209C876.905 234.84 877.387 236.463 878.027 237.981C878.722 239.63 879.624 241.184 880.716 242.613C881.754 243.972 882.941 245.329 884.347 246.312C885.662 247.231 887.109 247.659 888.647 247.381C889.351 247.253 890.029 247.026 890.693 246.778C891.348 246.534 892 246.283 892.605 245.936C893.749 245.278 894.833 244.256 894.896 242.825C894.918 242.309 894.904 241.699 894.8 241.186C894.762 241.002 894.734 240.884 894.543 240.841C894.313 240.789 894.051 240.827 893.82 240.832C892.504 240.861 891.286 240.423 890.273 239.517C889.245 238.598 888.348 237.031 888.948 235.7C889.688 234.057 891.605 233.49 893.222 233.111C892.233 231.06 891.877 228.737 892.706 226.659C893.623 224.36 895.436 222.579 896.503 220.357C896.781 219.778 897.045 219.167 897.036 218.498C897.031 218.219 897.009 217.872 896.878 217.614C896.705 217.275 896.323 217.202 895.996 217.109C894.26 216.616 889.464 216.762 887.641 217.596Z" fill="#191847"/>
<path fill-rule="evenodd" clip-rule="evenodd" d="M924.878 308.329L998.831 349.515L1057.75 386.413L1063.83 382.905L949.528 294.098L924.878 308.329Z" fill="white"/>
<path fill-rule="evenodd" clip-rule="evenodd" d="M1052.62 386.103C1052.92 387.943 1053.29 389.238 1053.73 389.989C1054.25 390.902 1055.18 392.147 1056.49 393.723C1057.55 393.111 1067.07 387.614 1085.06 377.232C1084.38 374.35 1083.19 373.272 1081.48 374C1079.76 374.727 1078.33 375.318 1077.18 375.771L1060.49 377.517C1060.17 377.551 1059.94 377.838 1059.97 378.16C1059.97 378.165 1059.97 378.171 1059.97 378.176L1060.31 380.739C1059.23 382.284 1058.23 383.324 1057.3 383.859C1056.55 384.293 1055.34 384.589 1053.66 384.746L1053.66 384.746C1053.02 384.807 1052.55 385.377 1052.61 386.02C1052.61 386.048 1052.61 386.076 1052.62 386.103Z" fill="#FFCA00"/>
<path d="M1084.94 376.634C1084.56 376.404 1065.45 387.337 1055.94 392.832C1055.84 393.339 1056.32 393.82 1056.72 394.189C1057.13 394.559 1085.23 378.516 1085.5 377.899C1085.77 377.282 1085.41 376.921 1084.94 376.634Z" fill="#CBA71E"/>
<path fill-rule="evenodd" clip-rule="evenodd" d="M1045 382.42L1054.67 372.109C1040.67 359.725 1024.63 346.467 1006.54 332.337C988.442 318.206 970.17 305.038 951.718 292.833L918.62 311.942C940.65 328.137 962.108 342.021 982.994 353.593C1003.88 365.165 1024.55 374.774 1045 382.42Z" fill="url(#paint2_radial_1_170)"/>
<path fill-rule="evenodd" clip-rule="evenodd" d="M922.405 309.757C931.617 333.915 941.074 366.115 940.931 367.36C940.836 368.19 928.322 382.347 903.39 409.83L907.796 414.431C941.247 388.099 958.116 372.913 958.403 368.875C958.834 362.817 953.674 319.904 947.161 295.464L922.405 309.757Z" fill="url(#paint3_linear_1_170)"/>
<path fill-rule="evenodd" clip-rule="evenodd" d="M911.472 398.988L918.767 406.284C947.441 392.92 963.165 381.536 965.939 372.13C968.713 362.725 963.095 336.799 949.085 294.354L917.524 312.575C930.455 346.491 937.002 364.27 937.165 365.913C937.328 367.556 928.763 378.581 911.472 398.988Z" fill="url(#paint4_radial_1_170)"/>
<path fill-rule="evenodd" clip-rule="evenodd" d="M903.6 406.733C901.841 407.354 900.63 407.944 899.966 408.501C899.158 409.179 898.092 410.302 896.768 411.872C897.555 412.809 904.621 421.231 917.969 437.138C920.69 435.973 921.544 434.611 920.53 433.051C919.516 431.491 918.686 430.185 918.041 429.132L913.422 412.996C913.333 412.685 913.01 412.506 912.699 412.595C912.694 412.596 912.689 412.598 912.683 412.599L910.219 413.381C908.509 412.584 907.311 411.776 906.624 410.958C906.065 410.293 905.563 409.148 905.117 407.526L905.117 407.526C904.946 406.903 904.302 406.537 903.679 406.708C903.652 406.715 903.626 406.724 903.6 406.733Z" fill="#FFCA00"/>
<path fill-rule="evenodd" clip-rule="evenodd" d="M963.671 257.493L973.377 244.82C972.162 237.193 972.795 232.807 975.275 231.664C976.801 229.926 977.263 240.036 980.571 237.684C983.88 235.332 989.851 224.816 991.972 225.483C995.11 226.47 995.775 233.451 994.731 237.529C992.781 245.151 989.954 248.709 981.974 255.252C977.802 258.673 973.831 263.596 970.06 270.021L963.671 257.493Z" fill="url(#paint5_linear_1_170)"/>
<mask id="mask0_1_170" style="mask-type:alpha" maskUnits="userSpaceOnUse" x="963" y="225" width="33" height="46">
<path fill-rule="evenodd" clip-rule="evenodd" d="M963.671 257.493L973.377 244.82C972.162 237.193 972.795 232.807 975.275 231.664C976.801 229.926 977.263 240.036 980.571 237.684C983.88 235.332 989.851 224.816 991.972 225.483C995.11 226.47 995.775 233.451 994.731 237.529C992.781 245.151 989.954 248.709 981.974 255.252C977.802 258.673 973.831 263.596 970.06 270.021L963.671 257.493Z" fill="url(#paint6_linear_1_170)"/>
</mask>
<g mask="url(#mask0_1_170)">
<path d="M972.696 242.619C972.29 242.88 972.648 245.409 972.877 246.641C973.276 246.894 977.914 255.373 981.501 256.315C985.088 257.257 987.588 253.452 987.914 252.692C988.24 251.931 978.348 243.38 976.392 242.293C974.435 241.206 973.203 242.292 972.696 242.619Z" fill="#E1E1E1"/>
</g>
<path d="M942.783 245.635L923.31 272.731L932.756 275.139L947.91 250.093C954.335 243.576 956.94 240.018 955.724 239.42C953.901 238.522 952.566 240.933 951.238 240.526C949.909 240.119 949.697 236.138 949.657 232.351C949.617 228.563 948.039 229.806 947.292 230.786C945.33 234.827 943.827 239.776 942.783 245.635Z" fill="#E1E1E1"/>
<mask id="mask1_1_170" style="mask-type:alpha" maskUnits="userSpaceOnUse" x="923" y="229" width="34" height="47">
<path d="M942.783 245.634L923.31 272.73L932.756 275.139L947.91 250.093C954.335 243.576 956.94 240.018 955.724 239.42C953.901 238.522 952.566 240.933 951.238 240.526C949.909 240.119 949.697 236.138 949.657 232.35C949.617 228.563 948.039 229.806 947.292 230.785C945.33 234.826 943.827 239.776 942.783 245.634Z" fill="#E1E1E1"/>
</mask>
<g mask="url(#mask1_1_170)">
<path d="M951.401 247.653C951.453 247.263 945.639 244.804 942.725 243.624C942.384 243.266 941.116 246.37 941.003 247.214C940.889 248.059 947.811 250.269 949.289 250.562C950.768 250.854 951.336 248.14 951.401 247.653Z" fill="#B9B9B9"/>
</g>
<path fill-rule="evenodd" clip-rule="evenodd" d="M922.508 264.771C928.627 261.152 936.087 255.111 941.637 244.493L949.507 250.178C946.926 259.664 941.274 269.497 933.725 273.578C927.775 276.793 920.694 271.439 922.508 264.771Z" fill="#E1E1E1"/>
<path fill-rule="evenodd" clip-rule="evenodd" d="M937.902 272.289C945.38 270.145 955.231 261.895 967.456 247.537C975.83 253.229 980.844 257.839 982.497 261.367C973.279 275.882 963.741 285.487 954.539 291.071C958.028 296.43 960.393 302.08 960.907 308.194C961.966 320.762 929.46 327.324 921.348 334.41C904.87 319.105 911.585 305.143 904.718 293.228C897.197 280.179 896.079 254.057 897.62 253.167L911.672 245.055C918.198 254.568 928.438 263.293 937.902 272.289Z" fill="url(#paint7_linear_1_170)"/>
<path fill-rule="evenodd" clip-rule="evenodd" d="M1186.06 156.37C1169.46 148.849 1157.29 139.898 1158.89 136.376C1159.94 134.054 1166.72 134.673 1175.97 137.521C1174.37 139.18 1173.09 141.145 1172.23 143.318C1176.95 145.544 1179 146.421 1188 150.46C1197 154.5 1199.69 155.537 1205.15 157.842C1206.09 155.905 1206.69 153.774 1206.88 151.526C1215.13 156.604 1220.06 161.288 1219.01 163.61C1217.41 167.132 1202.66 163.89 1186.06 156.37Z" fill="#FF8A01"/>
<path d="M1170.95 149.993C1170.95 159.934 1179.01 167.993 1188.95 167.993C1198.89 167.993 1206.95 159.934 1206.95 149.993C1206.95 140.052 1198.89 131.993 1188.95 131.993C1179.01 131.993 1170.95 140.052 1170.95 149.993Z" fill="#383B51"/>
<path fill-rule="evenodd" clip-rule="evenodd" d="M1186.06 156.37C1169.46 148.849 1157.29 139.898 1158.89 136.376C1159.94 134.054 1166.72 134.673 1175.97 137.521C1174.37 139.18 1173.09 141.145 1172.23 143.318C1176.95 145.544 1179 146.421 1188 150.46C1197 154.5 1199.69 155.537 1205.15 157.842C1206.09 155.905 1206.69 153.774 1206.88 151.526C1215.13 156.604 1220.06 161.288 1219.01 163.61C1217.41 167.132 1202.66 163.89 1186.06 156.37Z" fill="#383B51"/>
<path d="M897.169 325.989C904.484 420.196 514 448.638 514 187.5C514 -121 418.5 -50 293.5 -40.5" stroke="url(#paint8_linear_1_170)" stroke-width="5"/>
<path fill-rule="evenodd" clip-rule="evenodd" d="M514.219 777.149C521.09 765.84 530.735 759.949 534.699 758.417C536.414 762.305 539.055 773.295 535.901 786.146C531.959 802.21 518.011 833.637 516.915 834.09C516.854 834.115 516.806 834.212 516.768 834.374L521.895 866.731L502.945 859.458C497.255 871.931 485.606 891.293 483.094 883.14C481.394 877.625 483.594 864.71 486.335 853.084L468.959 846.415L481.393 836.346C483.556 834.213 486 831.994 488.136 830.054C491.342 827.142 493.854 824.861 493.685 824.451C493.232 823.355 505.631 791.285 514.219 777.149Z" fill="url(#paint9_linear_1_170)"/>
<path d="M766.5 524.5C762.5 526.9 762.5 529 762 530.5C761.5 529.5 761 527.4 757 525C760 522 760.5 521 761.5 519C762 520 762.5 522.1 766.5 524.5Z" fill="#383B51" stroke="#383B51"/>
<path d="M751.5 173.5C747.5 175.9 747.5 178 747 179.5C746.5 178.5 746 176.4 742 174C745 171 745.5 170 746.5 168C747 169 747.5 171.1 751.5 173.5Z" fill="#383B51" stroke="#383B51"/>
<path d="M1283.5 277.5C1279.5 279.9 1279.5 282 1279 283.5C1278.5 282.5 1278 280.4 1274 278C1277 275 1277.5 274 1278.5 272C1279 273 1279.5 275.1 1283.5 277.5Z" fill="#383B51" stroke="#383B51"/>
<path d="M955.5 124.5C951.5 126.9 951.5 129 951 130.5C950.5 129.5 950 127.4 946 125C949 122 949.5 121 950.5 119C951 120 951.5 122.1 955.5 124.5Z" fill="#383B51" stroke="#383B51"/>
<path d="M210.5 212.5C206.5 214.9 206.5 217 206 218.5C205.5 217.5 205 215.4 201 213C204 210 204.5 209 205.5 207C206 208 206.5 210.1 210.5 212.5Z" fill="#383B51" stroke="#383B51"/>
<path d="M443.5 309.5C439.5 311.9 439.5 314 439 315.5C438.5 314.5 438 312.4 434 310C437 307 437.5 306 438.5 304C439 305 439.5 307.1 443.5 309.5Z" fill="#383B51" stroke="#383B51"/>
<path d="M401.5 88.5C397.5 90.9 397.5 93 397 94.5C396.5 93.5 396 91.4 392 89C395 86 395.5 85 396.5 83C397 84 397.5 86.1 401.5 88.5Z" fill="#383B51" stroke="#383B51"/>
<path d="M44.5 277.5C40.5 279.9 40.5 282 40 283.5C39.5 282.5 39 280.4 35 278C38 275 38.5 274 39.5 272C40 273 40.5 275.1 44.5 277.5Z" fill="#383B51" stroke="#383B51"/>
<path d="M38.5 568.5C34.5 570.9 34.5 573 34 574.5C33.5 573.5 33 571.4 29 569C32 566 32.5 565 33.5 563C34 564 34.5 566.1 38.5 568.5Z" fill="#383B51" stroke="#383B51"/>
<path d="M340.5 791.5C336.5 793.9 336.5 796 336 797.5C335.5 796.5 335 794.4 331 792C334 789 334.5 788 335.5 786C336 787 336.5 789.1 340.5 791.5Z" fill="#383B51" stroke="#383B51"/>
<path d="M140.5 735.5C136.5 737.9 136.5 740 136 741.5C135.5 740.5 135 738.4 131 736C134 733 134.5 732 135.5 730C136 731 136.5 733.1 140.5 735.5Z" fill="#383B51" stroke="#383B51"/>
<path d="M1329.5 506.5C1325.5 508.9 1325.5 511 1325 512.5C1324.5 511.5 1324 509.4 1320 507C1323 504 1323.5 503 1324.5 501C1325 502 1325.5 504.1 1329.5 506.5Z" fill="#383B51" stroke="#383B51"/>
<path d="M1382.5 196.5C1378.5 198.9 1378.5 201 1378 202.5C1377.5 201.5 1377 199.4 1373 197C1376 194 1376.5 193 1377.5 191C1378 192 1378.5 194.1 1382.5 196.5Z" fill="#383B51" stroke="#383B51"/>
<path d="M1056.5 77.5C1052.5 79.9 1052.5 82 1052 83.5C1051.5 82.5 1051 80.4 1047 78C1050 75 1050.5 74 1051.5 72C1052 73 1052.5 75.1 1056.5 77.5Z" fill="#383B51" stroke="#383B51"/>
<path d="M1077.5 261.5C1073.5 263.9 1073.5 266 1073 267.5C1072.5 266.5 1072 264.4 1068 262C1071 259 1071.5 258 1072.5 256C1073 257 1073.5 259.1 1077.5 261.5Z" fill="#383B51" stroke="#383B51"/>
<path d="M983 264C983 262.8 970.667 252.5 964.5 247.5C964.5 246 966 240.5 968 240.5C970 240.5 988.5 257.5 989 258C989.5 258.5 983 265.5 983 264Z" fill="url(#paint10_linear_1_170)"/>
<path d="M949.829 254.279C949.717 253.682 942.332 249.763 938.653 247.878C938.513 247.132 938.781 244.249 939.823 244.054C940.865 243.858 952.088 250.508 952.395 250.708C952.702 250.908 949.969 255.025 949.829 254.279Z" fill="#E1E1E1"/>
<rect x="891.706" y="326.616" width="10.2806" height="4.27451" rx="2" transform="rotate(-5.51925 891.706 326.616)" fill="#E1E1E1"/>
<path d="M878.224 256.752C880.03 256.082 881.647 258.101 880.598 259.716L874.322 269.381C873.974 269.917 873.39 270.255 872.752 270.289L871.496 270.356C870.393 270.415 869.451 269.569 869.392 268.466L869.028 261.667C868.981 260.793 869.508 259.99 870.329 259.685L878.224 256.752Z" fill="#E1E1E1"/>
<path d="M916.829 301.394C922.312 306.877 941.473 297.012 945.802 294.686C940.957 299.607 918.191 310.884 914.987 307.502C911.503 303.825 905.989 278.167 906.57 280.683C907.151 283.199 910.78 295.345 916.829 301.394Z" fill="#E1E1E1"/>
<path d="M944.203 321.017C944.637 320.664 945.034 320.356 945.372 320.105C945.227 320.303 944.815 320.617 944.203 321.017C941.854 322.928 938.428 326.155 937.507 328.704C936.144 332.479 927.44 338.141 927.021 337.722C926.602 337.303 923.561 331.745 924.819 331.221C925.919 330.762 939.933 323.807 944.203 321.017Z" fill="#E1E1E1"/>
<path d="M956.085 316.208C955.871 317.423 960.541 332.877 962.923 341.72C963.321 343.203 970.604 346.097 969.532 345.65C968.461 345.204 956.353 314.689 956.085 316.208Z" fill="#E1E1E1"/>
<path d="M866.231 276.524C867.598 273.243 873.339 272.255 876.294 271.598C879.554 270.874 884.731 270.782 885.825 272.514C886.919 274.245 895.941 322.182 895.212 323.003C894.483 323.823 877.076 325.919 874.889 324.552C872.702 323.185 864.864 279.805 866.231 276.524Z" fill="#E1E1E1"/>
<path d="M872.575 261.129C874.421 256.697 882.176 255.362 886.168 254.475C890.572 253.497 897.408 251.518 898.885 253.857C900.363 256.196 912.707 322.805 911.723 323.913C910.738 325.021 887.224 327.852 884.27 326.006C881.315 324.159 870.728 265.561 872.575 261.129Z" fill="#F5F5F5"/>
<mask id="mask2_1_170" style="mask-type:alpha" maskUnits="userSpaceOnUse" x="866" y="271" width="30" height="55">
<path d="M866.231 276.524C867.598 273.243 873.339 272.255 876.294 271.598C879.554 270.874 884.731 270.782 885.825 272.514C886.919 274.245 895.941 322.182 895.212 323.003C894.483 323.823 877.076 325.919 874.889 324.552C872.702 323.185 864.864 279.805 866.231 276.524Z" fill="white"/>
</mask>
<g mask="url(#mask2_1_170)">
<path d="M872.152 291.17C872.105 290.94 869.017 273.426 868.326 272.919" stroke="#FFCA00" stroke-width="3"/>
</g>
<path d="M888.554 319.233C887.478 318.824 883.113 294.992 881.064 283.128C880.68 271.541 895.532 271.285 897.516 279.735C897.794 280.917 905.71 316.801 905.518 317.697C905.326 318.593 889.898 319.746 888.554 319.233Z" fill="white"/>
<path d="M886.538 316.403C885.271 315.921 880.128 287.845 877.714 273.868C877.262 260.218 894.759 259.916 897.096 269.871C897.424 271.264 906.75 313.538 906.524 314.593C906.297 315.649 888.122 317.007 886.538 316.403Z" fill="url(#paint11_linear_1_170)"/>
<path d="M886.881 318.069C886.02 317.275 886.081 316.358 886.219 316C887.709 313.93 905.84 312.605 906.585 313.268C907.33 313.93 906.75 315.089 906.585 316C906.419 316.91 887.958 319.063 886.881 318.069Z" fill="#E1E1E1"/>
<path d="M939.099 285.56C943.923 291.279 947.081 292.707 948.54 292.649C944.596 296.819 925.453 304.842 922.492 301.132C919.825 297.791 912.707 280.121 910.769 276.22C910.482 276.038 910.314 275.848 910.286 275.648C910.229 275.248 910.41 275.499 910.769 276.22C914.14 278.367 934.016 279.533 939.099 285.56Z" fill="white"/>
<circle cx="892.117" cy="219.813" r="34" fill="url(#paint12_linear_1_170)"/>
<mask id="mask3_1_170" style="mask-type:alpha" maskUnits="userSpaceOnUse" x="858" y="185" width="69" height="69">
<circle cx="892.117" cy="219.813" r="34" fill="white"/>
</mask>
<g mask="url(#mask3_1_170)">
<path d="M920.343 237.976C922.562 236.315 913.095 249.339 908.76 252.713C908.76 253.411 890.346 260.481 887.553 259.608C884.76 258.735 886.855 258.822 886.506 256.291C886.157 253.76 902.564 246.779 904.397 245.819C906.229 244.859 914.192 242.579 920.343 237.976Z" fill="#FEFFFF"/>
</g>
<path d="M868.774 205.541C892.144 184.995 912.714 202.155 911.578 200.301C906.47 191.959 896.837 188.648 890.11 189.406C880.504 190.489 872.01 194.88 868.774 205.541Z" fill="#242635"/>
<path d="M920.833 215.77C920.416 213.927 918.63 210.282 917.78 208.973C920.521 209.11 921.07 210.911 921.457 211.446C921.844 211.981 921.251 217.612 920.833 215.77Z" fill="#242635"/>
<circle cx="915.479" cy="266.517" r="7.33816" fill="#FFCA00"/>
<path d="M919.983 327.53C918.753 325.517 910.142 312.767 909.359 311.649C909.944 320.133 915.697 331.129 919.228 332.087C920.307 332.381 921.213 329.543 919.983 327.53Z" fill="#E1E1E1"/>
<mask id="mask4_1_170" style="mask-type:alpha" maskUnits="userSpaceOnUse" x="615" y="507" width="1018" height="1030">
<path fill-rule="evenodd" clip-rule="evenodd" d="M1081.64 520.937C1079.81 517.952 1079.58 514.801 1082.57 511.611C1090.68 502.961 1114.93 508.407 1143.77 514.882C1154.05 517.19 1164.92 519.629 1175.84 521.607C1432.6 547.58 1633 764.387 1633 1028C1633 1309.11 1405.11 1537 1124 1537C842.887 1537 615 1309.11 615 1028C615 928.349 615.092 871.357 664.585 792.863C709.202 712.384 776.027 645.489 853.749 597.962C863.888 589.344 883.176 572.63 892.013 563.793C902.175 553.631 912.474 555.996 917.907 564.24C970.281 540.935 1025.82 526.011 1081.64 520.937Z" fill="url(#paint13_linear_1_170)"/>
</mask>
<g mask="url(#mask4_1_170)">
<path d="M1077.45 717.071C874.768 790.368 694.226 723.389 727.763 619.054C838.819 196.348 1251.78 461.967 1253.16 491.12C1254.55 520.272 1330.79 625.449 1077.45 717.071Z" fill="url(#paint14_radial_1_170)"/>
<g filter="url(#filter1_f_1_170)">
<path d="M1438.81 988.913C1291.59 1177.65 1111.4 1175.29 1078.9 1043.51C959.023 557.452 1442.7 588.165 1479.79 694.329C1491.84 728.837 1622.82 752.993 1438.81 988.913Z" fill="url(#paint15_radial_1_170)"/>
</g>
</g>
<mask id="mask5_1_170" style="mask-type:alpha" maskUnits="userSpaceOnUse" x="615" y="519" width="1018" height="1018">
<path d="M1633 1028C1633 1309.11 1405.11 1537 1124 1537C842.887 1537 615 1309.11 615 1028C615 938.787 626.876 860.765 667.197 787.857C753.928 631.026 932.1 519 1124 519C1405.11 519 1633 746.887 1633 1028Z" fill="url(#paint16_linear_1_170)"/>
</mask>
<g mask="url(#mask5_1_170)">
<ellipse cx="825.836" cy="885.083" rx="298.437" ry="288.041" transform="rotate(56.6945 825.836 885.083)" fill="url(#paint17_radial_1_170)"/>
</g>
<path d="M1020.57 513.139C1090.15 503.341 1151.5 502.627 1143.78 533.165C1136.05 563.703 1090.15 604.149 1020.57 613.947C950.991 623.744 872.326 613.937 880.05 583.399C887.775 552.861 950.991 522.937 1020.57 513.139Z" fill="url(#paint18_radial_1_170)"/>
<mask id="mask6_1_170" style="mask-type:alpha" maskUnits="userSpaceOnUse" x="879" y="507" width="266" height="111">
<path d="M1020.57 513.139C1090.15 503.341 1151.5 502.627 1143.78 533.165C1136.05 563.703 1090.15 604.149 1020.57 613.947C950.991 623.744 872.326 613.937 880.05 583.399C887.775 552.861 950.991 522.937 1020.57 513.139Z" fill="url(#paint19_radial_1_170)"/>
</mask>
<g mask="url(#mask6_1_170)">
<g filter="url(#filter2_f_1_170)">
<path d="M1127.01 560.406C1151 487.946 817.208 563.282 952.896 610.399C939.749 623.547 851.395 591.584 840.196 552.142C828.996 512.7 859.186 529.256 906.419 496.144C953.652 463.032 1090.97 467.902 1140.15 468.875C1189.33 469.849 1181.54 505.883 1185.92 522.926C1189.43 536.56 1135.29 546.285 1127.01 560.406Z" fill="url(#paint20_radial_1_170)"/>
</g>
</g>
<ellipse cx="131.174" cy="161.838" rx="131.174" ry="161.838" transform="matrix(0.960901 0.276894 -0.234256 0.972175 654.111 722.211)" fill="#2C2F41"/>
<ellipse cx="181.362" cy="198.028" rx="181.362" ry="198.028" transform="matrix(0.863252 0.504773 0.483855 -0.875148 1090.4 981.478)" fill="#2C2F42"/>
<ellipse cx="121.363" cy="149.733" rx="121.363" ry="149.733" transform="matrix(0.960901 0.276894 -0.234256 0.972175 660.703 736.696)" fill="url(#paint21_radial_1_170)"/>
<ellipse cx="170.29" cy="185.939" rx="170.29" ry="185.939" transform="matrix(0.862992 0.505218 0.483363 -0.87542 1104.9 972.554)" fill="url(#paint22_radial_1_170)"/>
<path d="M1019.96 515.563C1054.7 510.671 1087.19 508.079 1109.98 510.463C1121.39 511.657 1130.17 514.08 1135.61 517.934C1141 521.748 1142.99 526.85 1141.3 533.514C1137.69 547.807 1125.01 564.809 1104.42 579.569C1083.87 594.303 1055.56 606.683 1021.18 611.523C986.614 616.391 949.802 616.381 922.654 611.383C909.068 608.882 898.037 605.155 890.907 600.262C883.723 595.333 880.891 589.514 882.526 583.05C884.252 576.229 889.103 569.273 896.794 562.386C904.509 555.478 914.953 548.765 927.485 542.602C952.54 530.282 985.394 520.43 1019.96 515.563Z" stroke="#2C2F41" stroke-width="5"/>
<g filter="url(#filter3_f_1_170)">
<path d="M1153.32 727.081C1063.08 809.254 1126.33 1048.89 1132.92 1052.79C1216.54 1258.44 950.2 1138.17 997.341 894.529C1044.48 650.888 1243.55 644.909 1153.32 727.081Z" fill="#2C2F41"/>
</g>
<path d="M1287.84 553.538C1280.1 553.538 1269.6 549.764 1266.29 546.332C1259.91 539.712 1281.19 533.685 1288.64 538.909C1296.09 544.134 1291.87 553.538 1287.84 553.538Z" fill="#313447"/>
<path d="M1082.13 684.098C1094.24 680.558 1106.7 679.772 1112.04 688.049C1119.74 699.977 1108.83 702.811 1100.08 710.104C1091.71 717.089 1087.48 729.119 1077.47 719.441C1065.57 707.942 1075.84 685.939 1082.13 684.098Z" fill="#313447"/>
<path d="M915.752 741.528C918.14 743.68 919.978 746.278 918.897 748.545C916.812 752.915 906.558 749.363 907.461 745.244C908.364 741.124 914.511 740.409 915.752 741.528Z" fill="#313447"/>
<path d="M1263.9 630.884C1266.28 633.037 1268.12 635.635 1267.04 637.901C1264.96 642.272 1254.7 638.72 1255.61 634.6C1256.51 630.481 1262.66 629.765 1263.9 630.884Z" fill="#313447"/>
<path d="M814.769 680.539C810.719 679.244 812.503 675.171 814.769 670.976C819.14 662.885 834.68 661.832 829.621 668.943C824.347 676.356 818.604 681.765 814.769 680.539Z" fill="#313447"/>
<path d="M1048.49 922.331C1043.62 931.752 1032.04 926.703 1020.23 920.479C997.439 908.476 1015.88 889.413 1040.48 893.178C1065.08 896.943 1053.09 913.412 1048.49 922.331Z" fill="#313447"/>
<path d="M1158.82 524.922C1158.5 527.615 1157.68 530.215 1155.81 530.816C1152.21 531.974 1150.03 523.606 1152.97 521.855C1155.91 520.103 1158.98 523.522 1158.82 524.922Z" fill="#383B51"/>
<path d="M874.051 593.47C876.104 595.24 877.794 597.381 877.244 599.263C876.184 602.892 868.034 600.003 868.232 596.588C868.431 593.173 872.983 592.55 874.051 593.47Z" fill="#383B51"/>
</g>
<rect x="4.5" y="0.5" width="1423" height="970" stroke="black"/>
</g>
<rect x="4.5" y="0.5" width="1423" height="970" stroke="black"/>
<defs>
<filter id="filter0_d_1_170" x="0" y="0" width="1432" height="979" filterUnits="userSpaceOnUse" color-interpolation-filters="sRGB">
<feFlood flood-opacity="0" result="BackgroundImageFix"/>
<feColorMatrix in="SourceAlpha" type="matrix" values="0 0 0 0 0 0 0 0 0 0 0 0 0 0 0 0 0 0 127 0" result="hardAlpha"/>
<feOffset dy="4"/>
<feGaussianBlur stdDeviation="2"/>
<feComposite in2="hardAlpha" operator="out"/>
<feColorMatrix type="matrix" values="0 0 0 0 0 0 0 0 0 0 0 0 0 0 0 0 0 0 0.25 0"/>
<feBlend mode="normal" in2="BackgroundImageFix" result="effect1_dropShadow_1_170"/>
<feBlend mode="normal" in="SourceGraphic" in2="effect1_dropShadow_1_170" result="shape"/>
</filter>
<filter id="filter1_f_1_170" x="1039.85" y="609.505" width="516.356" height="547.703" filterUnits="userSpaceOnUse" color-interpolation-filters="sRGB">
<feFlood flood-opacity="0" result="BackgroundImageFix"/>
<feBlend mode="normal" in="SourceGraphic" in2="BackgroundImageFix" result="shape"/>
<feGaussianBlur stdDeviation="10" result="effect1_foregroundBlur_1_170"/>
</filter>
<filter id="filter2_f_1_170" x="827.859" y="458.059" width="368.227" height="165.343" filterUnits="userSpaceOnUse" color-interpolation-filters="sRGB">
<feFlood flood-opacity="0" result="BackgroundImageFix"/>
<feBlend mode="normal" in="SourceGraphic" in2="BackgroundImageFix" result="shape"/>
<feGaussianBlur stdDeviation="5" result="effect1_foregroundBlur_1_170"/>
</filter>
<filter id="filter3_f_1_170" x="971.702" y="659.582" width="224.796" height="518.064" filterUnits="userSpaceOnUse" color-interpolation-filters="sRGB">
<feFlood flood-opacity="0" result="BackgroundImageFix"/>
<feBlend mode="normal" in="SourceGraphic" in2="BackgroundImageFix" result="shape"/>
<feGaussianBlur stdDeviation="10" result="effect1_foregroundBlur_1_170"/>
</filter>
<radialGradient id="paint0_radial_1_170" cx="0" cy="0" r="1" gradientUnits="userSpaceOnUse" gradientTransform="translate(912.5 322.5) rotate(143.655) scale(1230.08 1803.95)">
<stop stop-color="#242535"/>
<stop offset="0.861983" stop-color="#242535"/>
<stop offset="1" stop-color="#242535"/>
</radialGradient>
<linearGradient id="paint1_linear_1_170" x1="997.5" y1="528.887" x2="1347.07" y2="1266.81" gradientUnits="userSpaceOnUse">
<stop stop-color="#2C2F41"/>
<stop offset="0.283302" stop-color="#2C2F41"/>
<stop offset="0.51521" stop-color="#2C2F41"/>
<stop offset="1" stop-color="#2C2F41"/>
</linearGradient>
<radialGradient id="paint2_radial_1_170" cx="0" cy="0" r="1" gradientUnits="userSpaceOnUse" gradientTransform="translate(1031.58 299.511) rotate(129.581) scale(113.176 79.9347)">
<stop stop-color="#C3C3C3"/>
<stop offset="0.52403" stop-color="white"/>
<stop offset="1" stop-color="#C8C8C8"/>
</radialGradient>
<linearGradient id="paint3_linear_1_170" x1="905.986" y1="319.237" x2="947.659" y2="391.416" gradientUnits="userSpaceOnUse">
<stop stop-color="white"/>
<stop offset="1" stop-color="#F9F9F9"/>
</linearGradient>
<radialGradient id="paint4_radial_1_170" cx="0" cy="0" r="1" gradientUnits="userSpaceOnUse" gradientTransform="translate(917.118 363.358) rotate(11.7771) scale(48.001 49.107)">
<stop stop-color="#5A5A5A"/>
<stop offset="0.596197" stop-color="#EEEEEE"/>
<stop offset="1" stop-color="white"/>
</radialGradient>
<linearGradient id="paint5_linear_1_170" x1="974.249" y1="232.038" x2="987.58" y2="262.304" gradientUnits="userSpaceOnUse">
<stop stop-color="white"/>
<stop offset="1" stop-color="#F9F9F9"/>
</linearGradient>
<linearGradient id="paint6_linear_1_170" x1="974.249" y1="232.038" x2="987.58" y2="262.304" gradientUnits="userSpaceOnUse">
<stop stop-color="white"/>
<stop offset="1" stop-color="#F9F9F9"/>
</linearGradient>
<linearGradient id="paint7_linear_1_170" x1="918.175" y1="241.3" x2="960.522" y2="314.647" gradientUnits="userSpaceOnUse">
<stop stop-color="white"/>
<stop offset="1" stop-color="#F9F9F9"/>
</linearGradient>
<linearGradient id="paint8_linear_1_170" x1="452.741" y1="-11.4849" x2="897.271" y2="384.301" gradientUnits="userSpaceOnUse">
<stop stop-color="#242635"/>
<stop offset="1" stop-color="#494D69"/>
</linearGradient>
<linearGradient id="paint9_linear_1_170" x1="503.166" y1="758.417" x2="478" y2="907.5" gradientUnits="userSpaceOnUse">
<stop stop-color="#383B51"/>
<stop offset="1" stop-color="#383B51"/>
</linearGradient>
<linearGradient id="paint10_linear_1_170" x1="976.764" y1="240.5" x2="976.764" y2="264.21" gradientUnits="userSpaceOnUse">
<stop stop-color="white"/>
<stop offset="1" stop-color="#F9F9F9"/>
</linearGradient>
<linearGradient id="paint11_linear_1_170" x1="905.725" y1="284.239" x2="879.812" y2="288.453" gradientUnits="userSpaceOnUse">
<stop stop-color="#EFEFEF"/>
<stop offset="0.534453" stop-color="white" stop-opacity="0.465547"/>
<stop offset="1" stop-color="#EFEFEF" stop-opacity="0"/>
</linearGradient>
<linearGradient id="paint12_linear_1_170" x1="907.71" y1="166.617" x2="892.117" y2="253.813" gradientUnits="userSpaceOnUse">
<stop stop-color="#7177D1" stop-opacity="0.12"/>
<stop offset="1" stop-color="#242635" stop-opacity="0.22"/>
</linearGradient>
<linearGradient id="paint13_linear_1_170" x1="997.5" y1="528.888" x2="1347.07" y2="1266.81" gradientUnits="userSpaceOnUse">
<stop stop-color="#3C417C"/>
<stop offset="1" stop-color="#0C0D1C"/>
</linearGradient>
<radialGradient id="paint14_radial_1_170" cx="0" cy="0" r="1" gradientUnits="userSpaceOnUse" gradientTransform="translate(995.021 578.289) rotate(87.0275) scale(207.824 373.461)">
<stop stop-color="#2B2E41"/>
<stop offset="0.332336" stop-color="#2C2E41"/>
<stop offset="0.581437" stop-color="#2D3041"/>
</radialGradient>
<radialGradient id="paint15_radial_1_170" cx="0" cy="0" r="1" gradientUnits="userSpaceOnUse" gradientTransform="translate(1501.03 994.791) rotate(-138.513) scale(446.825 699.472)">
<stop stop-color="#303361" stop-opacity="0.83"/>
<stop offset="0.983218" stop-color="#191B34" stop-opacity="0"/>
</radialGradient>
<linearGradient id="paint16_linear_1_170" x1="997.5" y1="540.5" x2="1340.5" y2="1273" gradientUnits="userSpaceOnUse">
<stop stop-color="#3C417C"/>
<stop offset="1" stop-color="#0C0D1C"/>
</linearGradient>
<radialGradient id="paint17_radial_1_170" cx="0" cy="0" r="1" gradientUnits="userSpaceOnUse" gradientTransform="translate(795.014 899.454) rotate(-84.6361) scale(303.131 313.29)">
<stop offset="0.477659" stop-color="#292C3E"/>
<stop offset="1" stop-color="#2D3044" stop-opacity="0"/>
</radialGradient>
<radialGradient id="paint18_radial_1_170" cx="0" cy="0" r="1" gradientUnits="userSpaceOnUse" gradientTransform="translate(1010.22 565.001) rotate(174.18) scale(126.371 47.9897)">
<stop stop-color="#2C2F42"/>
<stop offset="0.52458" stop-color="#2B2E40"/>
<stop offset="0.974002" stop-color="#262837"/>
</radialGradient>
<radialGradient id="paint19_radial_1_170" cx="0" cy="0" r="1" gradientUnits="userSpaceOnUse" gradientTransform="translate(1010.22 565.001) rotate(173.891) scale(130.834 49.6844)">
<stop stop-color="#2C2F42"/>
<stop offset="0.791667" stop-color="#313567"/>
<stop offset="1" stop-color="#2E3263"/>
</radialGradient>
<radialGradient id="paint20_radial_1_170" cx="0" cy="0" r="1" gradientUnits="userSpaceOnUse" gradientTransform="translate(1005.4 508.896) rotate(72.7185) scale(95.5486 205.205)">
<stop offset="0.140928" stop-color="#252737"/>
<stop offset="1" stop-color="#272A3B"/>
</radialGradient>
<radialGradient id="paint21_radial_1_170" cx="0" cy="0" r="1" gradientUnits="userSpaceOnUse" gradientTransform="translate(128.558 181.983) rotate(-97.2568) scale(182.491 148.312)">
<stop stop-color="#2D3041"/>
<stop offset="0.596662" stop-color="#2B2E41"/>
<stop offset="1" stop-color="#242635"/>
</radialGradient>
<radialGradient id="paint22_radial_1_170" cx="0" cy="0" r="1" gradientUnits="userSpaceOnUse" gradientTransform="translate(302.492 138.575) rotate(142.397) scale(318.966 300.84)">
<stop stop-color="#252737"/>
<stop offset="0.60513" stop-color="#2C2F42"/>
<stop offset="0.841688" stop-color="#262838"/>
<stop offset="1" stop-color="#252737"/>
</radialGradient>
<clipPath id="clip0_1_170">
<rect x="4" width="1424" height="971" fill="white"/>
</clipPath>
</defs>
</svg>
